<?xml version="1.0" encoding="utf-8"?>
<!-- Generator: Adobe Illustrator 16.0.0, SVG Export Plug-In . SVG Version: 6.00 Build 0)  -->
<!DOCTYPE svg PUBLIC "-//W3C//DTD SVG 1.1//EN" "http://www.w3.org/Graphics/SVG/1.1/DTD/svg11.dtd">
<svg version="1.1" id="rocket_icon_mockup_xA0_Image_1_"
	 xmlns="http://www.w3.org/2000/svg" xmlns:xlink="http://www.w3.org/1999/xlink" x="0px" y="0px" width="400px" height="400px"
	 viewBox="0 0 400 400" enable-background="new 0 0 400 400" xml:space="preserve">
<g>
	<g>
		<path fill-rule="evenodd" clip-rule="evenodd" d="M200.93,401c-65.333,0-130.667-0.039-196,0.105
			c-3.568,0.008-4.017-0.903-4.015-4.176c0.099-130.666,0.104-261.333-0.019-392C0.894,1.363,1.797,0.913,5.07,0.915
			c130.667,0.1,261.333,0.104,392-0.019c3.566-0.003,4.017,0.901,4.015,4.174c-0.1,130.666-0.104,261.333,0.019,392
			c0.003,3.566-0.9,4.021-4.174,4.016C331.597,400.971,266.264,401,200.93,401z M122.059,299.632
			c-4.834-3.651-9.669-7.302-14.504-10.953c-2.356-2.601-4.407-3.511-7.494-0.42c-2.765,2.77-7.101,4.075-9.567,7.015
			c-3.631,4.325-7.745,8.127-11.51,12.283c-1.975,2.18-4.109,4.298-5.654,6.769c-5.695,9.104-11.443,18.194-16.65,27.578
			c-4.27,7.694-7.852,15.775-11.614,23.744c-0.71,1.505-2.231,3.634-0.506,4.866c1.42,1.015,3.673,0.786,5.627-0.142
			c4.205-1.995,8.027-4.883,12.11-6.735c8.357-3.792,15.267-9.732,23.285-13.98c6.203-3.286,11.458-8.45,16.713-13.012
			c6.883-5.973,13.458-12.767,18.045-21.108c1.767-3.213,2.947-7.132,5.5-9.483c2.649-2.442,1.459-3.117-0.379-4.391
			C124.378,300.912,123.196,300.304,122.059,299.632z M111.018,235.925c3.614,0.258,6.393,0.456,9.171,0.653
			c2.393,0.171,2.558,1.315,1.562,3.225c-4.763,9.133-7.506,18.974-10.196,28.853c-1.237,4.541-0.266,7.582,3.471,10.796
			c7.595,6.534,16.7,11.028,23.802,18.15c1.242,1.245,2.479,0.905,4.053,0.583c7.619-1.562,14.71-4.511,21.562-8.023
			c10.946-5.611,12.912-4.369,12.54,8.322c-0.015,0.499-0.047,0.998-0.104,1.494c-2.683,23.032-14.483,41.666-28.542,59.221
			c-8.326,10.396-17.387,20.072-27.616,28.633c-1.551,1.298-3.188,3.111-1.948,5.099c1.037,1.661,3.096,0.289,4.627-0.03
			c16.881-3.523,32.154-10.868,46.952-19.496c17.067-9.951,32.03-22.229,43.025-38.755c9.2-13.828,15.795-28.985,18.34-45.437
			c1.895-12.244,2.907-24.781-1.614-36.829c-1.621-4.319,0.931-6.531,3.573-8.636c14.286-11.382,27.379-24.089,40.571-36.662
			c11.661-11.115,23.214-22.417,33.108-35.184c9.054-11.681,18.063-23.423,25.633-36.173c4.872-8.207,10.311-16.121,14.607-24.615
			c9.736-19.25,18.963-38.748,25.916-59.246c3.557-10.486,6.978-21.003,9.413-31.799c1.242-5.508,0.599-6.07-4.839-4.387
			c-16,4.954-31.48,11.269-46.685,18.274c-17.73,8.17-34.735,17.593-51.364,27.87c-13.866,8.569-26.547,18.642-39.397,28.483
			c-8.789,6.73-16.69,14.676-24.644,22.431c-13.188,12.861-24.967,27.05-36.826,41.094c-5.227,6.188-10.755,12.275-15.064,19.336
			c-2.832,4.641-6.473,8.324-13.612,6.127c-9.105-2.804-18.642-1.042-27.945,0.478c-12.683,2.072-24.585,6.382-35.988,12.273
			c-15.702,8.114-28.585,19.563-39.502,33.269c-7.772,9.758-13.427,20.863-18.679,32.101c-5.966,12.765-10.122,26.192-12.979,39.998
			c-0.318,1.536-1.042,3.519,0.933,4.428c1.777,0.818,2.606-0.858,3.478-2.054c3.959-5.433,9.154-9.769,13.435-14.871
			c13.389-15.955,29.216-28.846,47.337-38.979C90.309,240.5,100.796,237.317,111.018,235.925z"/>
		<path fill-rule="evenodd" clip-rule="evenodd" fill="#CB0707" d="M111.018,235.925c-10.222,1.393-20.708,4.575-30.438,10.015
			c-18.122,10.133-33.948,23.023-47.337,38.979c-4.281,5.103-9.476,9.438-13.435,14.871c-0.871,1.195-1.7,2.872-3.478,2.054
			c-1.976-0.909-1.251-2.892-0.933-4.428c2.856-13.806,7.012-27.233,12.979-39.998c5.251-11.237,10.906-22.343,18.679-32.101
			c10.917-13.705,23.8-25.154,39.502-33.269c11.403-5.892,23.306-10.201,35.988-12.273c9.304-1.52,18.84-3.281,27.945-0.478
			c7.14,2.197,10.78-1.486,13.612-6.127c4.31-7.061,9.838-13.147,15.064-19.336c11.859-14.044,23.639-28.232,36.826-41.094
			c7.953-7.755,15.854-15.7,24.644-22.431c12.851-9.842,25.531-19.914,39.397-28.483c16.629-10.277,33.634-19.7,51.364-27.87
			c15.204-7.006,30.685-13.32,46.685-18.274c5.438-1.684,6.081-1.121,4.839,4.387c-2.436,10.796-5.856,21.313-9.413,31.799
			c-6.953,20.498-16.18,39.996-25.916,59.246c-4.297,8.494-9.735,16.408-14.607,24.615c-7.569,12.75-16.579,24.492-25.633,36.173
			c-9.895,12.767-21.447,24.068-33.108,35.184c-13.192,12.573-26.285,25.28-40.571,36.662c-2.643,2.104-5.194,4.316-3.573,8.636
			c4.521,12.048,3.509,24.585,1.614,36.829c-2.545,16.451-9.14,31.608-18.34,45.437c-10.995,16.526-25.958,28.804-43.025,38.755
			c-14.798,8.628-30.071,15.973-46.952,19.496c-1.531,0.319-3.59,1.691-4.627,0.03c-1.24-1.987,0.397-3.801,1.948-5.099
			c10.229-8.561,19.29-18.236,27.616-28.633c14.059-17.555,25.859-36.188,28.542-59.221c0.058-0.496,0.09-0.995,0.104-1.494
			c0.372-12.691-1.594-13.934-12.54-8.322c-6.852,3.513-13.942,6.462-21.562,8.023c-1.573,0.322-2.811,0.662-4.053-0.583
			c-7.102-7.122-16.207-11.616-23.802-18.15c-3.736-3.214-4.708-6.255-3.471-10.796c2.69-9.879,5.434-19.72,10.196-28.853
			c0.996-1.909,0.831-3.054-1.562-3.225C117.41,236.381,114.632,236.183,111.018,235.925z"/>
		<path fill-rule="evenodd" clip-rule="evenodd" fill="#F3F5C9" d="M122.059,299.632c1.138,0.672,2.319,1.28,3.402,2.03
			c1.838,1.273,3.028,1.948,0.379,4.391c-2.553,2.352-3.733,6.271-5.5,9.483c-4.587,8.342-11.162,15.136-18.045,21.108
			c-5.256,4.562-10.51,9.726-16.713,13.012c-8.018,4.248-14.928,10.188-23.285,13.98c-4.083,1.853-7.905,4.74-12.11,6.735
			c-1.954,0.928-4.207,1.156-5.627,0.142c-1.725-1.232-0.205-3.361,0.506-4.866c3.762-7.969,7.344-16.05,11.614-23.744
			c5.208-9.384,10.956-18.475,16.65-27.578c1.545-2.471,3.679-4.589,5.654-6.769c3.765-4.156,7.879-7.958,11.51-12.283
			c2.467-2.939,6.803-4.245,9.567-7.015c3.087-3.091,5.138-2.181,7.489,0.414c-7.927,6.505-15.08,13.594-20.437,22.551
			c-5.293,8.851-9.645,18.105-13.797,27.489c-0.524,1.185-0.943,2.685,0.336,3.683c1.064,0.831,2.29,0.2,3.268-0.392
			c4.543-2.752,9.197-5.358,13.528-8.418C103.33,324.482,116.137,315.243,122.059,299.632z"/>
		<path fill-rule="evenodd" clip-rule="evenodd" fill="#8EE3EC" d="M122.059,299.632c-5.922,15.611-18.729,24.851-31.612,33.954
			c-4.331,3.06-8.984,5.666-13.528,8.418c-0.978,0.592-2.203,1.223-3.268,0.392c-1.279-0.998-0.86-2.498-0.336-3.683
			c4.152-9.384,8.504-18.639,13.797-27.489c5.357-8.957,12.51-16.046,20.437-22.551C112.39,292.33,117.225,295.98,122.059,299.632z"
			/>
	</g>
</g>
</svg>
